<svg xmlns="http://www.w3.org/2000/svg"
    width="16"
    height="16"
    viewBox="0 0 16 16"
    shape-rendering="crispEdges">
    <!-- Modular configurator: a wide handheld controller with a storage-grid display. -->
    <path fill="#12171f" d="M2 3h12v1h1v9h-1v1H2v-1H1V4h1z" />
    <rect x="2" y="4" width="12" height="9" fill="#414d56" />
    <rect x="2" y="4" width="12" height="1" fill="#8a99a3" />
    <rect x="2" y="5" width="1" height="7" fill="#5f6e78" />
    <rect x="13" y="5" width="1" height="7" fill="#2b353d" />
    <rect x="2" y="12" width="12" height="1" fill="#212a31" />

    <rect x="4" y="5" width="8" height="6" fill="#173f48" />
    <rect x="4" y="5" width="8" height="1" fill="#31707a" />
    <rect x="4" y="6" width="1" height="5" fill="#295e68" />
    <rect x="11" y="6" width="1" height="5" fill="#0f2d36" />

    <rect x="5" y="6" width="2" height="2" fill="#9deaf0" />
    <rect x="8" y="6" width="1" height="2" fill="#4ec9d8" />
    <rect x="10" y="6" width="1" height="2" fill="#f0bd4f" />
    <rect x="5" y="9" width="2" height="1" fill="#2f8ba0" />
    <rect x="8" y="9" width="1" height="1" fill="#59d09d" />
    <rect x="10" y="9" width="1" height="1" fill="#e05b4d" />

    <rect x="3" y="6" width="1" height="4" fill="#b58a2a" />
    <rect x="12" y="6" width="1" height="4" fill="#b58a2a" />
    <rect x="3" y="6" width="1" height="1" fill="#e0b755" />
    <rect x="12" y="6" width="1" height="1" fill="#e0b755" />
</svg>
