<svg xmlns="http://www.w3.org/2000/svg"
    width="16"
    height="16"
    viewBox="0 0 16 16"
    shape-rendering="crispEdges">
    <!-- Essence converter overlay: larger square reactor plate with a centered conversion core. -->
    <rect x="3" y="3" width="10" height="10" fill="#3c4950" />
    <rect x="3" y="3" width="10" height="1" fill="#859399" />
    <rect x="3" y="4" width="1" height="8" fill="#6f7d82" />
    <rect x="12" y="4" width="1" height="8" fill="#354247" />
    <rect x="4" y="12" width="8" height="1" fill="#2e3940" />

    <rect x="5" y="5" width="6" height="6" fill="#6f3aa5" />
    <rect x="5" y="5" width="6" height="1" fill="#cb93ff" />
    <rect x="5" y="6" width="1" height="4" fill="#8d4ec9" />
    <rect x="10" y="6" width="1" height="4" fill="#4f2d7d" />
    <rect x="6" y="6" width="4" height="4" fill="#a96fe8" />
    <rect x="6" y="6" width="4" height="1" fill="#f0dbff" />
    <rect x="6" y="7" width="4" height="1" fill="#d2a7ff" />
    <rect x="6" y="8" width="4" height="1" fill="#8d59c8" />
    <rect x="7" y="5" width="2" height="1" fill="#d9afff" />
    <rect x="7" y="10" width="2" height="1" fill="#5f347c" />
</svg>